:SAMPLES-PER-SECOND 24
:FULLY-SPECIFIED
:DEGREES
515
root  -4.09113 40.5617 48.9816 178.54 -27.9042 171.257
RightUpLeg  -7.58852 -12.8782 -12.8343
RightLeg  9.48154 -31.2965 0.904693
RightFoot  -9.24255 -0.0640951 0.0800079
RightToes  -1.46203e-006 3.27826e-006 1.63871e-007
Spine  3.94848 -3.94497 -8.40547
Spine1  16.5146 -4.71643 2.98464
HEad  -4.25644 -11.1076 0.295389
LeftShoulder1  1.79282 -2.87488 -21.7569
LeftArm  15.7211 -14.0878 -49.9174
LeftForeArm  81.7332 -78.4637 -105.353
LeftHand  0.303299 8.23877 13.2901
RightShoulder  3.70395 6.13843 32.5323
RightArm  29.2386 -26.3255 34.4062
RightForeArm  3.88038 26.4859 5.49083
RightHand  -0.0481909 -1.94141 -1.28771
LeftUpLeg  13.6734 13.301 18.7292
LeftLeg  28.3734 3.57944 2.43458
LeftFoot  15.5182 1.51991 -6.76138
LeftToes  1.24767e-006 1.47042e-008 1.32732e-009
516
root  -4.48345 40.5462 51.0481 -179.933 -34.9991 169.75
RightUpLeg  -7.73258 -11.9734 -15.718
RightLeg  6.86759 -32.0766 0.713974
RightFoot  -10.4386 -0.0730719 0.336375
RightToes  -1.46203e-006 3.27826e-006 1.63871e-007
Spine  4.02319 -4.42296 -7.62614
Spine1  16.6988 -4.79917 1.84914
HEad  -3.69644 -15.8486 0.798515
LeftShoulder1  1.81426 -2.81563 -22.396
LeftArm  18.4329 -15.5771 -49.4807
LeftForeArm  94.8175 -77.6688 -116.627
LeftHand  0.116576 7.53882 7.96242
RightShoulder  3.8375 6.27316 33.3688
RightArm  30.2104 -31.5558 35.7679
RightForeArm  10.7669 29.082 5.72922
RightHand  0.151466 -2.35925 6.46442
LeftUpLeg  12.9191 11.8389 18.4898
LeftLeg  27.7929 3.14759 2.13801
LeftFoot  17.3206 1.47224 -6.17603
LeftToes  1.24767e-006 1.47042e-008 1.32732e-009
517
root  -4.869 40.1689 53.2951 -179.143 -40.9947 169.269
RightUpLeg  -8.54386 -12.0623 -17.7738
RightLeg  5.96043 -31.7607 -0.58887
RightFoot  -11.1802 -0.0767558 0.143031
RightToes  -1.46203e-006 3.27826e-006 1.63871e-007
Spine  4.56645 -4.60608 -5.91511
Spine1  16.854 -4.71105 1.18606
HEad  -4.1261 -20.118 1.84244
LeftShoulder1  1.79914 -2.75667 -22.4261
LeftArm  19.2739 -16.2953 -49.5041
LeftForeArm  101.031 -77.4106 -120.059
LeftHand  0.0102675 6.90206 3.2453
RightShoulder  3.92971 6.38009 33.8733
RightArm  28.9317 -35.1538 35.9344
RightForeArm  13.1912 34.074 6.84706
RightHand  0.106103 -3.71783 8.89972
LeftUpLeg  12.0707 10.9861 18.8575
LeftLeg  27.3796 2.75935 1.88848
LeftFoot  17.0049 1.37251 -5.84234
LeftToes  1.24767e-006 1.47042e-008 1.32732e-009
518
root  -5.23644 39.5214 55.6903 -178.813 -46.1139 169.559
RightUpLeg  -9.86975 -13.2064 -20.2336
RightLeg  6.22459 -32.9447 -1.63733
RightFoot  -10.6255 -0.0645818 -0.986529
RightToes  -1.46203e-006 3.27826e-006 1.63871e-007
Spine  5.01403 -4.61661 -4.55331
Spine1  17.3603 -4.89078 1.70266
HEad  -5.24373 -23.8451 3.40845
LeftShoulder1  1.81565 -2.77647 -22.6099
LeftArm  19.4657 -16.6323 -49.8331
LeftForeArm  97.4752 -77.9714 -115.45
LeftHand  -0.00535962 6.38018 3.01191
RightShoulder  3.98874 6.42063 34.3029
RightArm  27.996 -34.9434 34.637
RightForeArm  12.5024 37.6825 7.89805
RightHand  0.143235 -2.94258 7.8287
LeftUpLeg  10.5309 10.666 19.0107
LeftLeg  27.1885 1.84032 1.36303
LeftFoot  16.5195 1.91757 -8.03685
LeftToes  1.24767e-006 1.47042e-008 1.32732e-009
519
root  -5.616 38.756 58.2304 -178.735 -50.728 170.033
RightUpLeg  -9.99207 -15.4246 -23.6491
RightLeg  5.00836 -33.9408 -0.850744
RightFoot  -9.03948 -0.0509483 -0.511934
RightToes  -1.46203e-006 3.27826e-006 1.63871e-007
Spine  6.14864 -4.62268 -4.46678
Spine1  17.0852 -5.70664 3.24212
HEad  -6.67983 -26.9311 5.10622
LeftShoulder1  1.92455 -3.00423 -23.3093
LeftArm  19.1775 -16.2737 -50.3018
LeftForeArm  81.6378 -78.9125 -100.109
LeftHand  0.0135491 6.26703 5.44282
RightShoulder  3.91857 6.33144 33.9569
RightArm  27.1708 -30.9122 32.2175
RightForeArm  10.425 38.971 8.41712
RightHand  0.16961 -2.54981 7.66686
LeftUpLeg  9.28632 10.0688 18.0707
LeftLeg  26.8635 0.563433 0.647842
LeftFoot  10.0488 2.86237 -15.4054
LeftToes  1.24767e-006 1.47042e-008 1.32732e-009
520
root  -5.92684 37.8754 60.8528 -179.409 -53.3961 171.107
RightUpLeg  -9.56816 -16.15 -25.9506
RightLeg  0.971783 -32.1452 0.643262
RightFoot  -9.25394 -0.0610192 -0.126816
RightToes  -1.46203e-006 3.27826e-006 1.63871e-007
Spine  8.11604 -3.81667 -5.24874
Spine1  16.2324 -6.09245 5.48439
HEad  -9.01459 -29.3889 7.38361
LeftShoulder1  2.06437 -3.28638 -24.1847
LeftArm  18.8725 -16.1729 -51.2671
LeftForeArm  52.6801 -78.4333 -70.8445
LeftHand  0.110082 6.95474 9.94023
RightShoulder  3.85948 6.22956 33.7694
RightArm  21.327 -23.9487 29.2097
RightForeArm  10.6165 36.9681 7.81234
RightHand  0.131959 -2.5746 6.3537
LeftUpLeg  8.75658 11.4807 17.1767
LeftLeg  27.5157 -3.13231 -1.44457
LeftFoot  -5.09854 1.35939 -23.2917
LeftToes  1.24767e-006 1.47042e-008 1.32732e-009
521
root  -6.06665 37.1153 63.1633 -179.866 -53.7194 171.953
RightUpLeg  -10.4989 -15.9299 -26.8442
RightLeg  -2.35257 -24.6377 1.18502
RightFoot  -11.2172 -0.0644717 1.20273
RightToes  -1.46203e-006 3.27826e-006 1.63871e-007
Spine  9.38074 -2.13638 -6.91196
Spine1  16.1372 -5.54591 7.6144
HEad  -12.6285 -31.0145 9.84886
LeftShoulder1  2.19442 -3.52357 -25.0496
LeftArm  18.9997 -15.7082 -50.9805
LeftForeArm  29.9733 -75.2565 -46.9849
LeftHand  0.403132 8.37544 16.267
RightShoulder  4.02766 6.30697 35.1515
RightArm  3.12686 -17.8131 26.9197
RightForeArm  16.6994 35.1674 6.86103
RightHand  -0.0356191 -3.49031 -1.6127
LeftUpLeg  6.9677 15.6064 16.254
LeftLeg  30.7708 -7.62051 -4.54283
LeftFoot  -17.2121 -0.962234 -21.3944
LeftToes  1.24767e-006 1.47042e-008 1.32732e-009
522
root  -6.15263 37.0803 64.7821 -179.984 -53.3664 173.051
RightUpLeg  -12.4466 -16.156 -26.1883
RightLeg  -1.55012 -15.9312 1.61708
RightFoot  -9.22422 -0.176427 6.11075
RightToes  -1.46203e-006 3.27826e-006 1.63871e-007
Spine  9.0426 -1.38005 -7.29185
Spine1  16.3363 -4.96932 8.00722
HEad  -15.1852 -31.451 10.9726
LeftShoulder1  2.27716 -3.70239 -25.4411
LeftArm  18.4052 -10.1965 -47.5711
LeftForeArm  24.2703 -73.7059 -41.1061
LeftHand  0.732924 9.58623 20.4579
RightShoulder  4.22752 6.43899 36.5907
RightArm  -15.6938 -16.8422 26.8351
RightForeArm  18.847 44.2039 9.4746
RightHand  0.206209 -6.80007 -17.3953
LeftUpLeg  4.63914 18.9542 14.9594
LeftLeg  32.3619 -8.66752 -5.50265
LeftFoot  -19.5903 -1.10811 -16.7691
LeftToes  1.24767e-006 1.47042e-008 1.32732e-009
523
root  -6.31426 38.1473 65.6351 179.271 -53.0864 175.304
RightUpLeg  -12.8582 -15.3706 -23.1689
RightLeg  0.872911 -12.1033 2.96964
RightFoot  -1.52806 -0.902608 10.3655
RightToes  -1.46203e-006 3.27826e-006 1.63871e-007
Spine  7.5387 -1.80709 -5.52587
Spine1  15.7065 -4.72616 6.74797
HEad  -14.0638 -31.1206 10.2724
LeftShoulder1  2.28271 -3.71466 -25.4653
LeftArm  17.5285 1.27284 -43.026
LeftForeArm  28.4676 -74.8089 -44.9992
LeftHand  0.754432 9.73289 20.3579
RightShoulder  4.12607 6.35969 35.9198
RightArm  -19.4269 -19.5745 27.4679
RightForeArm  17.9915 60.8368 18.8685
RightHand  0.477243 -7.34088 -28.0799
LeftUpLeg  4.71249 19.5612 13.9968
LeftLeg  27.4576 -7.31447 -3.76067
LeftFoot  -14.895 -0.435754 -16.8039
LeftToes  1.24767e-006 1.47042e-008 1.32732e-009
524
root  -6.43535 39.9328 65.9109 178.56 -53.2564 177.215
RightUpLeg  -11.7586 -14.8386 -18.5242
RightLeg  4.55992 -8.61799 3.21164
RightFoot  6.04369 -1.65356 11.0958
RightToes  -1.46203e-006 3.27826e-006 1.63871e-007
Spine  5.73555 -2.08031 -4.25862
Spine1  14.4492 -4.57191 6.14934
HEad  -10.2966 -31.2232 8.89436
LeftShoulder1  2.22664 -3.60456 -25.1511
LeftArm  17.9881 13.13 -40.2815
LeftForeArm  31.7271 -75.191 -46.0045
LeftHand  0.604979 9.16466 18.9562
RightShoulder  3.80026 6.0737 33.7962
RightArm  -15.7599 -23.2745 26.4237
RightForeArm  38.8485 75.3942 44.7741
RightHand  0.300038 -7.03451 -22.1867
LeftUpLeg  6.32861 17.0601 13.0724
LeftLeg  18.8499 -3.901 -1.8176
LeftFoot  -2.694 1.32594 -17.3637
LeftToes  1.24767e-006 1.47042e-008 1.32732e-009
525
root  -6.37339 41.6621 66.0185 178.933 -54.8541 177.674
RightUpLeg  -11.2074 -19.2751 -13.394
RightLeg  10.9354 1.55084 2.57427
RightFoot  10.8936 -2.13769 11.256
RightToes  -1.46203e-006 3.27826e-006 1.63871e-007
Spine  4.53275 -2.12182 -4.32649
Spine1  12.6959 -4.53132 6.55665
HEad  -7.04317 -32.2845 8.33493
LeftShoulder1  2.16066 -3.6885 -23.8084
LeftArm  18.8849 21.864 -39.4937
LeftForeArm  32.5685 -74.7292 -43.3322
LeftHand  0.464031 8.38662 18.4706
RightShoulder  3.45719 5.68606 31.7408
RightArm  -12.5378 -26.1228 24.8265
RightForeArm  94.7489 79.3283 102.554
RightHand  -0.0477577 -4.86573 -9.65468
LeftUpLeg  5.68736 10.2695 11.4402
LeftLeg  12.4109 4.52413 -1.36138
LeftFoot  14.3579 3.40783 -15.3491
LeftToes  1.24767e-006 1.47042e-008 1.32732e-009
526
root  -6.16801 42.8221 66.2097 -179.837 -57.7603 176.993
RightUpLeg  -11.0933 -22.6401 -10.0567
RightLeg  18.2638 11.835 4.3017
RightFoot  15.5741 -3.44382 14.7514
RightToes  -1.46203e-006 3.27826e-006 1.63871e-007
Spine  4.3204 -2.47414 -4.40893
Spine1  10.716 -4.59366 6.15714
HEad  -6.39369 -33.6446 9.19733
LeftShoulder1  2.10035 -4.08137 -21.3278
LeftArm  18.4272 28.0378 -39.7444
LeftForeArm  37.299 -75.3877 -45.1916
LeftHand  0.28766 7.36294 17.6624
RightShoulder  3.05008 5.17635 29.2199
RightArm  -10.0187 -26.8893 24.4855
RightForeArm  123.713 74.1933 137.863
RightHand  -0.0859662 -3.93212 -5.22125
LeftUpLeg  2.96518 9.4901 10.3254
LeftLeg  10.7784 11.2028 -0.513181
LeftFoot  22.8057 3.62183 -12.2502
LeftToes  1.24767e-006 1.47042e-008 1.32732e-009
